<svg id="Layer_1" xmlns="http://www.w3.org/2000/svg" viewBox="0 0 84 64"><style>.st0{fill:#ff402c}.st2{fill:#ffc72d}.st3{fill:#51bddc}</style><path class="st0" d="m31.3 26.3 6.3 3.7v28.6L31.3 55zm12.5 7.1 6.4 3.5v14.4l-6.4-3.4zm-.1-21.6 6.3 3.7.2 14.3-6.4-3.4z"/><path d="M43.7 11.8 50 8.2l6.3 3.6-6.3 3.7zM31.3 26.3l6.2-3.6 6.3 3.7-6.2 3.6zm6.3 3.7 6.2-3.6 6.4 3.4-6.4 3.7z" style="fill:#32bcd5"/><path class="st2" d="m37.6 30 6.2-3.6v7.1l6.4-3.7-.2-14.3 6.3-3.7v35.9l-6.1 3.6V36.9l-6.4 3.7V55l-6.2 3.6z"/><path class="st0" d="m22 24.3 6.3 3.6V35L22 31.5z"/><path class="st2" d="M15.8 56.6V42.2l6.2-3.6V53z"/><path class="st2" d="M15.8 35v-7.1L34.5 17l.2 21.6L22 45.8l.1-7.3 6.2-3.5v-7.1z"/><path class="st3" d="m15.8 35 6.2-3.5 6.3 3.5-6.3 3.6zM9.4 24.2l18.8-10.8 6.3 3.6-18.7 10.9z"/><path class="st0" d="m9.4 24.2 6.4 3.7V35l6.2 3.6v7.2l-6.2-3.6v14.4l-6.4-3.7zm44-.2 6.2 3.6v7.1l-6.2-3.6zm0 21.5 6.2 3.6v7.2l-6.2-3.6zm6.2-10.8 6.3-3.6v14.4l-6.3-3.6z"/><path class="st3" d="m53.4 24 12.5-7.3 6.3 3.6-12.6 7.3zm12.5 14.3 6.3-3.6 6.2 3.6-6.2 3.5zm-12.5 7.2 6.2-3.6 6.3 3.6-6.3 3.6z"/><path class="st2" d="M59.6 34.7v-7.1l12.6-7.3v21.5l6.2-3.6v7.2L59.6 56.3v-7.2l6.3-3.6V31.1l-6.3 3.6z"/></svg>